<svg xmlns="http://www.w3.org/2000/svg" viewBox="0 0 553 278"><path fill="#0D4963" d="M-1.89-1.08h554.92v280.11H-1.89z"/><path fill="none" stroke="#FFF" stroke-miterlimit="10" stroke-width=".5" d="M-5.73 254.29h560M-5.73 220.97h560M-5.73 187.64h560M-5.73 154.32h560M-5.73 120.82h560M-5.73 87.5h560" opacity=".6"/><path fill="#92C9ED" stroke="#FFF" stroke-miterlimit="10" d="M-5.73 54.17h560"/><path fill="none" stroke="#FFF" stroke-miterlimit="10" stroke-width=".5" d="M-5.73 20.84h560M524.29-12.43v300M490.97-12.43v300M457.64-12.43v300M424.32-12.43v300M390.99-12.43v300M357.67-12.43v300M324.34-12.43v300M291.02-12.43v300M257.52-12.43v300M224.2-12.43v300M190.87-12.43v300M157.55-12.43v300M124.22-12.43v300M90.9-12.43v300" opacity=".6"/><path fill="none" stroke="#FFF" stroke-miterlimit="10" d="M57.57-12.43v300"/><path fill="none" stroke="#FFF" stroke-miterlimit="10" stroke-width=".5" d="M24.25-12.43v300" opacity=".6"/><g><circle cx="424" cy="154.33" r="66.33" fill="none" stroke="#FFF" stroke-miterlimit="10" stroke-width="4"/><text fill="#FFF" font-family="'MyriadPro-Regular'" font-size="12" transform="translate(501.25 105.92)">11,3 r2</text><circle cx="423.95" cy="154.78" r="4" fill="#FFF"/><circle cx="57.61" cy="54.45" r="4" fill="#FFF"/><text fill="#FFF" font-family="'MyriadPro-Regular'" font-size="12" transform="translate(65.25 44.25)">0,0</text><text transform="translate(95 42.33)"><tspan x="0" y="0" fill="#FFF" font-family="'MyriadPro-Regular'" font-size="12">x</tspan><tspan x="5.56" y="0" fill="#FFF" font-family="'ArialMT'" font-size="12">→</tspan></text><text transform="translate(37.33 65.67)"><tspan x="0" y="0" fill="#FFF" font-family="'ArialMT'" font-size="12">y</tspan><tspan x="0" y="14.4" fill="#FFF" font-family="'ArialMT'" font-size="12">↓</tspan></text><circle cx="91.35" cy="120.89" r="4" fill="#FFF"/><circle cx="290.69" cy="187.89" r="4" fill="#FFF"/><text fill="#FFF" font-family="'MyriadPro-Regular'" font-size="12" transform="translate(98.66 110.03)">1,2</text><text fill="#FFF" font-family="'MyriadPro-Regular'" font-size="12" transform="translate(299 176.03)">7,4</text><path fill="none" stroke="#FFF" stroke-miterlimit="10" stroke-width="4" d="M91.35 120.89l199.34 67"/></g></svg>